<?xml version="1.0" standalone="no"?>
<!DOCTYPE svg PUBLIC "-//W3C//DTD SVG 20010904//EN"
 "http://www.w3.org/TR/2001/REC-SVG-20010904/DTD/svg10.dtd">
<svg version="1.0" xmlns="http://www.w3.org/2000/svg"
 width="640.000000pt" height="640.000000pt" viewBox="0 0 640.000000 640.000000"
 preserveAspectRatio="xMidYMid meet">

<g transform="translate(0.000000,640.000000) scale(0.100000,-0.100000)"
fill="#000000" stroke="none">
<path d="M3107 6070 c-117 -30 -225 -119 -275 -227 -20 -46 -27 -78 -30 -149
-4 -91 -4 -91 -36 -106 -114 -56 -206 -210 -206 -348 0 -61 25 -152 55 -205
25 -41 102 -121 137 -141 15 -8 17 -33 18 -219 l2 -210 -204 -3 -204 -2 -49
61 c-178 222 -503 205 -656 -32 l-29 -46 -88 -5 c-72 -4 -101 -11 -153 -36
-80 -38 -159 -118 -197 -199 -24 -52 -27 -70 -27 -163 0 -97 2 -110 31 -170
39 -82 106 -150 191 -192 55 -27 79 -33 154 -36 l89 -4 24 -42 c34 -58 102
-120 164 -151 176 -88 392 -35 506 123 l33 44 206 -1 207 -1 0 -1047 c0 -982
-1 -1048 -17 -1057 -35 -19 -113 -99 -137 -140 -108 -185 -50 -428 128 -538
l54 -33 4 -90 c6 -111 35 -182 107 -258 122 -129 307 -161 467 -82 135 66 213
187 222 344 5 87 5 88 37 105 18 10 56 41 84 69 124 124 154 304 75 460 -29
57 -92 128 -140 158 l-34 21 2 1044 3 1044 209 1 209 1 33 -44 c114 -158 330
-211 506 -123 62 31 130 93 164 151 l24 42 88 4 c71 3 100 10 152 34 86 40
153 108 193 192 30 62 32 75 32 172 0 93 -3 111 -27 163 -38 81 -117 161 -197
199 -52 25 -81 32 -153 36 l-88 5 -24 41 c-92 155 -284 227 -467 176 -62 -17
-154 -85 -199 -144 l-41 -56 -207 2 -207 3 -3 207 -2 206 34 21 c18 12 52 41
74 65 169 184 137 467 -69 605 l-60 40 -2 85 c-3 74 -8 94 -40 159 -67 135
-188 216 -335 223 -42 2 -94 -1 -115 -6z m208 -139 c52 -23 112 -84 137 -141
29 -62 29 -159 1 -222 l-22 -47 37 -7 c66 -11 104 -28 150 -69 96 -84 120
-216 61 -334 -26 -52 -42 -70 -92 -102 -33 -21 -66 -39 -74 -39 -11 0 -13 -58
-13 -315 l0 -315 315 0 314 0 21 48 c26 59 72 107 130 136 163 83 354 -13 392
-196 7 -32 15 -57 18 -55 49 29 94 41 155 41 86 0 132 -20 196 -86 131 -133
92 -353 -77 -438 -65 -32 -168 -34 -235 -4 l-46 21 -11 -56 c-24 -114 -106
-198 -216 -221 -130 -27 -269 51 -312 174 l-11 31 -316 3 -317 2 0 -1152 0
-1153 47 -19 c64 -27 127 -94 148 -157 21 -62 16 -168 -9 -216 -44 -86 -140
-153 -218 -153 -21 0 -38 -2 -38 -4 0 -2 10 -25 22 -52 27 -60 29 -161 4 -217
-24 -55 -83 -115 -140 -144 -39 -20 -66 -26 -116 -26 -109 0 -193 50 -246 145
-25 46 -29 63 -29 128 0 58 6 85 23 117 12 23 22 45 22 48 0 3 -17 5 -37 5
-36 0 -121 34 -153 62 -61 51 -106 163 -96 237 14 102 85 196 179 234 l37 16
-2 1148 -3 1148 -314 0 -314 0 -11 -31 c-43 -122 -182 -201 -308 -174 -111 23
-197 109 -220 220 l-11 57 -46 -21 c-67 -30 -170 -28 -235 4 -164 83 -207 296
-87 432 90 102 238 123 361 51 3 -2 11 23 18 55 23 113 110 201 219 221 126
24 250 -42 303 -161 l21 -48 314 0 315 0 0 313 0 312 -43 18 c-135 55 -206
206 -159 340 24 68 52 104 112 146 34 23 118 51 155 51 2 0 -8 26 -21 58 -38
91 -30 167 25 254 71 111 221 154 346 99z"/>
<path d="M3100 4695 l0 -555 -577 -2 -578 -3 0 -100 0 -100 578 -3 577 -2 0
-1365 0 -1365 100 0 100 0 0 1365 0 1365 578 2 577 3 0 100 0 100 -577 3 -578
2 0 555 0 555 -100 0 -100 0 0 -555z"/>
</g>
</svg>
