<?xml version="1.0" standalone="no"?>
<!DOCTYPE svg PUBLIC "-//W3C//DTD SVG 20010904//EN"
 "http://www.w3.org/TR/2001/REC-SVG-20010904/DTD/svg10.dtd">
<svg version="1.0" xmlns="http://www.w3.org/2000/svg"
 width="360.000000pt" height="360.000000pt" viewBox="0 0 360.000000 360.000000"
 preserveAspectRatio="xMidYMid meet">

<g transform="translate(0.000000,360.000000) scale(0.100000,-0.100000)"
fill="#000000" stroke="none">
<path d="M435 2908 c-17 -36 -20 -61 -19 -177 1 -123 4 -142 27 -200 15 -35
24 -67 22 -72 -3 -4 -51 -23 -106 -41 -79 -26 -106 -39 -122 -62 -44 -62 -61
-242 -30 -335 15 -49 20 -54 78 -81 l62 -29 -8 -55 c-12 -90 20 -268 55 -302
6 -7 69 -36 141 -67 72 -30 362 -154 645 -277 283 -122 624 -269 757 -326 133
-57 249 -104 258 -104 9 0 96 42 193 94 98 51 249 131 337 176 414 215 632
333 649 350 18 18 18 19 -8 43 -32 30 -46 73 -46 144 0 80 20 143 47 149 26 7
30 35 9 56 -7 8 -48 23 -90 33 -43 11 -82 25 -88 33 -14 16 -16 175 -4 257 10
70 -5 66 -23 -7 -19 -81 -13 -226 13 -289 5 -12 -31 -32 -176 -99 -101 -46
-221 -101 -268 -122 -47 -22 -98 -45 -115 -53 -16 -7 -148 -67 -292 -133
l-262 -120 -18 27 c-13 19 -19 50 -21 121 -4 90 1 120 34 229 14 46 -20 16
-40 -35 -14 -36 -19 -77 -20 -154 -1 -139 5 -219 15 -194 6 18 7 18 14 2 4
-10 11 -16 15 -13 5 3 12 0 16 -6 4 -7 9 -7 13 -1 5 9 102 56 206 102 22 10
65 29 95 43 30 14 186 84 345 157 160 72 334 152 388 177 54 25 101 42 104 39
4 -3 4 -8 2 -11 -6 -5 -497 -235 -504 -235 -1 0 -49 -22 -106 -49 -57 -27
-165 -77 -239 -111 -74 -34 -164 -76 -200 -92 -107 -50 -111 -49 -325 37 -104
43 -199 81 -210 86 -18 9 -18 9 3 5 12 -2 20 0 17 4 -3 4 -20 8 -37 8 -36 -1
-120 32 -101 39 7 2 22 -1 35 -7 22 -11 22 -11 3 5 -11 9 -30 14 -43 12 -22
-4 -81 14 -157 48 -59 26 -211 86 -243 96 -18 6 -31 13 -28 17 2 4 -2 16 -10
27 -8 10 -14 14 -14 9 0 -6 5 -15 12 -22 15 -15 10 -15 -30 -1 -18 6 -29 16
-25 22 3 6 1 7 -5 3 -15 -9 -63 4 -56 16 3 5 0 9 -7 8 -21 -3 -59 11 -59 22 0
5 -4 7 -10 3 -5 -3 -39 8 -76 25 -37 16 -70 30 -74 30 -4 0 -25 8 -46 17 -41
17 -47 20 -65 22 -5 0 -7 6 -3 13 5 8 2 9 -10 5 -14 -5 -99 26 -116 43 -3 3
-13 6 -24 8 -37 7 -182 75 -202 96 -33 34 -41 74 -40 186 1 88 5 113 24 152
23 46 25 48 117 78 52 16 98 30 102 30 9 0 55 -131 49 -137 -1 -2 -52 13 -111
32 -60 19 -111 35 -114 35 -4 0 -12 -10 -20 -22 -10 -18 -11 -20 0 -10 7 6 17
12 22 12 4 0 5 -6 1 -12 -4 -7 -4 -10 1 -6 4 4 15 2 23 -5 10 -8 13 -8 9 0 -9
14 111 -21 164 -49 32 -16 42 -30 62 -86 44 -119 47 -130 33 -141 -7 -6 -15
-9 -17 -6 -3 2 -5 -5 -5 -15 0 -19 1 -18 23 2 22 21 23 21 24 2 1 -10 1 -24 0
-31 -3 -21 47 -45 96 -46 26 0 40 -3 30 -6 -9 -3 27 -6 81 -6 108 0 444 -15
453 -21 3 -2 57 -6 120 -9 378 -17 939 -50 939 -55 0 -3 -54 -27 -120 -54 -66
-27 -120 -53 -120 -58 0 -6 7 -7 16 -4 9 3 79 31 157 62 l140 57 201 -12 c111
-6 240 -14 289 -17 99 -7 101 -6 73 74 -8 22 -18 71 -21 109 l-7 68 146 59
c129 52 146 62 146 82 0 30 -11 35 -150 74 -63 17 -117 35 -120 39 -9 15 -363
405 -420 463 l-55 56 -345 16 c-190 9 -646 32 -1014 51 -368 19 -670 35 -670
35 -1 0 -10 -19 -21 -42z m482 2 c436 -21 1281 -65 1465 -76 l107 -7 63 -71
c35 -38 143 -159 241 -268 97 -108 177 -204 177 -213 0 -15 -14 -16 -122 -10
-68 3 -359 17 -648 30 -1633 77 -1499 69 -1521 93 -9 9 -55 121 -104 247 -48
127 -93 239 -100 250 -14 23 -9 45 10 45 8 0 202 -9 432 -20z m-421 -118 c11
-31 46 -124 77 -207 73 -198 85 -225 101 -231 12 -5 12 -11 -1 -42 -18 -41
-23 -177 -10 -256 16 -93 -11 -37 -74 154 -41 123 -66 185 -72 177 -6 -8 -7
-6 -3 6 8 25 -4 68 -17 60 -6 -3 -7 -1 -3 5 4 6 4 23 0 37 -5 21 -9 24 -16 13
-7 -10 -8 -8 -4 5 3 10 -3 50 -14 90 -22 79 -26 162 -9 220 13 46 17 43 45
-31z m761 -472 c246 -11 599 -27 783 -35 184 -8 441 -19 570 -25 129 -6 256
-13 283 -16 l47 -6 -7 -51 c-12 -76 -9 -237 4 -274 l12 -33 -42 0 c-23 0 -114
5 -202 10 -88 6 -410 24 -715 40 -729 40 -892 49 -1090 60 -91 5 -173 10 -182
10 -36 0 -51 238 -20 313 14 33 -24 33 559 7z m1848 -59 c60 -17 100 -34 100
-41 0 -7 -58 -37 -129 -66 l-129 -53 6 56 c4 34 14 68 26 84 12 16 21 33 21
39 0 5 1 10 3 10 1 -1 47 -14 102 -29z m-2385 -281 l45 -7 -51 -2 c-37 -1 -55
4 -65 16 -13 15 -12 16 6 8 11 -4 40 -11 65 -15z m198 -17 c-21 -2 -55 -2 -75
0 -21 2 -4 4 37 4 41 0 58 -2 38 -4z m170 -10 c-21 -2 -55 -2 -75 0 -21 2 -4
4 37 4 41 0 58 -2 38 -4z m195 -10 c-24 -2 -62 -2 -85 0 -24 2 -5 4 42 4 47 0
66 -2 43 -4z m602 -28 c143 -8 445 -24 670 -36 226 -12 412 -23 414 -25 2 -2
2 -6 0 -8 -4 -4 -1224 64 -1504 84 l-130 9 145 -5 c80 -2 262 -11 405 -19z
m-1285 -108 c74 -30 187 -76 250 -102 63 -26 165 -68 225 -92 61 -25 135 -55
165 -68 30 -12 118 -48 195 -80 77 -31 210 -86 295 -120 85 -35 188 -77 229
-94 41 -17 83 -31 94 -31 11 0 52 15 91 34 39 19 278 129 531 245 526 240 545
250 559 274 9 14 7 21 -8 33 -28 20 -5 17 73 -9 36 -12 67 -28 69 -34 2 -7 -1
-13 -7 -13 -10 0 -107 -46 -868 -418 -313 -152 -321 -157 -331 -192 -31 -104
-22 -235 19 -279 15 -16 27 -20 47 -15 26 6 986 498 1085 556 26 15 50 28 52
28 36 0 -112 -84 -610 -345 -60 -32 -201 -107 -312 -166 -158 -85 -211 -109
-242 -109 -26 0 -93 24 -207 74 -93 40 -358 156 -589 256 -686 298 -704 306
-854 372 l-144 64 -20 54 c-19 55 -35 225 -24 254 7 18 -9 23 237 -77z m2703
-154 c-16 -61 -13 -105 12 -176 11 -33 12 -44 2 -53 -7 -7 -254 -134 -549
-284 -376 -190 -544 -270 -557 -265 -31 10 -44 67 -39 167 3 49 11 95 17 101
12 12 1109 565 1123 566 3 1 -1 -25 -9 -56z"/>
<path d="M348 2298 c6 -6 18 -8 28 -6 14 3 12 5 -9 10 -19 3 -25 2 -19 -4z"/>
<path d="M380 2280 l-25 -8 25 -2 c22 -1 23 -2 6 -9 -18 -7 -18 -8 -3 -14 9
-3 17 -2 17 3 0 5 12 13 27 16 25 7 25 8 8 15 -24 9 -23 9 -55 -1z"/>
<path d="M327 2249 c7 -7 15 -10 18 -7 3 3 -2 9 -12 12 -14 6 -15 5 -6 -5z"/>
<path d="M440 2256 c0 -2 7 -7 16 -10 8 -3 12 -2 9 4 -6 10 -25 14 -25 6z"/>
<path d="M521 2204 c0 -11 3 -14 6 -6 3 7 2 16 -1 19 -3 4 -6 -2 -5 -13z"/>
<path d="M486 2177 c3 -10 9 -15 12 -12 3 3 0 11 -7 18 -10 9 -11 8 -5 -6z"/>
<path d="M566 2067 c3 -10 9 -15 12 -12 3 3 0 11 -7 18 -10 9 -11 8 -5 -6z"/>
<path d="M285 1990 c-5 -8 52 -6 60 2 3 2 -9 5 -25 5 -17 0 -33 -3 -35 -7z"/>
<path d="M378 1993 c7 -3 16 -2 19 1 4 3 -2 6 -13 5 -11 0 -14 -3 -6 -6z"/>
<path d="M320 1970 c-21 -7 -21 -8 -5 -9 11 0 27 4 35 9 18 11 5 11 -30 0z"/>
<path d="M361 1956 c-9 -11 -8 -15 5 -20 21 -8 34 1 27 19 -7 19 -17 19 -32 1z"/>
<path d="M590 1956 c0 -9 5 -16 10 -16 6 0 10 4 10 9 0 6 -4 13 -10 16 -5 3
-10 -1 -10 -9z"/>
<path d="M560 1941 c0 -5 7 -12 16 -15 14 -5 15 -4 4 9 -14 17 -20 19 -20 6z"/>
<path d="M640 1930 c0 -6 17 -10 37 -10 43 0 41 5 -4 13 -19 4 -33 2 -33 -3z"/>
<path d="M473 1903 c0 -7 4 -10 9 -7 5 3 15 1 22 -5 8 -7 22 -8 36 -3 22 8 22
9 4 17 -29 13 -71 11 -71 -2z m57 -3 c0 -5 -4 -10 -10 -10 -5 0 -10 5 -10 10
0 6 5 10 10 10 6 0 10 -4 10 -10z"/>
<path d="M1373 1883 c15 -2 37 -2 50 0 12 2 0 4 -28 4 -27 0 -38 -2 -22 -4z"/>
<path d="M1380 1870 l-105 -6 100 -1 c55 0 114 3 130 7 36 9 32 9 -125 0z"/>
<path d="M1650 1865 c15 -18 0 -20 -20 -2 -12 10 -12 9 0 -6 7 -10 20 -15 28
-12 8 3 33 0 55 -7 38 -12 39 -13 16 -20 -22 -6 -22 -7 6 -6 51 2 146 -24 141
-38 -3 -8 0 -11 10 -7 8 3 22 -1 31 -8 12 -10 15 -10 9 -1 -9 16 2 15 54 -3
50 -18 50 -18 50 -6 0 8 -363 131 -385 131 -4 0 -2 -7 5 -15z"/>
<path d="M1573 1863 c9 -2 23 -2 30 0 6 3 -1 5 -18 5 -16 0 -22 -2 -12 -5z"/>
<path d="M1298 1843 c7 -3 16 -2 19 1 4 3 -2 6 -13 5 -11 0 -14 -3 -6 -6z"/>
<path d="M1348 1843 c7 -3 16 -2 19 1 4 3 -2 6 -13 5 -11 0 -14 -3 -6 -6z"/>
<path d="M1418 1843 c7 -3 16 -2 19 1 4 3 -2 6 -13 5 -11 0 -14 -3 -6 -6z"/>
<path d="M1568 1843 c6 -2 18 -2 25 0 6 3 1 5 -13 5 -14 0 -19 -2 -12 -5z"/>
<path d="M630 1829 c0 -5 5 -7 10 -4 6 3 10 8 10 11 0 2 -4 4 -10 4 -5 0 -10
-5 -10 -11z"/>
<path d="M667 1833 c-10 -10 -8 -23 4 -23 5 0 8 4 5 9 -4 5 0 12 6 14 7 3 8 6
2 6 -6 1 -14 -2 -17 -6z"/>
<path d="M738 1833 c6 -2 18 -2 25 0 6 3 1 5 -13 5 -14 0 -19 -2 -12 -5z"/>
<path d="M780 1810 c0 -5 5 -10 11 -10 5 0 7 5 4 10 -3 6 -8 10 -11 10 -2 0
-4 -4 -4 -10z"/>
<path d="M690 1806 c0 -2 9 -6 20 -9 11 -3 18 -1 14 4 -5 9 -34 13 -34 5z"/>
<path d="M1745 1790 c17 -7 15 -9 -12 -9 -17 -1 -34 -5 -38 -10 -3 -6 8 -8 27
-6 98 12 118 13 111 3 -3 -7 -1 -8 6 -4 21 13 1 25 -31 19 -18 -3 -29 -2 -26
3 4 5 -8 10 -25 11 -26 1 -28 0 -12 -7z"/>
<path d="M778 1783 c7 -3 16 -2 19 1 4 3 -2 6 -13 5 -11 0 -14 -3 -6 -6z"/>
<path d="M845 1745 c17 -7 34 -11 38 -8 4 3 13 0 20 -5 23 -18 54 -23 54 -8 0
8 -6 12 -14 9 -7 -3 -20 1 -29 8 -8 7 -34 14 -57 15 l-42 2 30 -13z"/>
<path d="M1961 1734 c9 -9 25 -14 35 -12 14 3 10 7 -16 16 -32 12 -34 11 -19
-4z"/>
<path d="M1925 1720 c-3 -5 -3 -10 2 -10 4 0 19 -3 33 -6 24 -6 25 -6 5 9 -24
19 -32 21 -40 7z"/>
<path d="M2015 1710 c-4 -6 -11 -7 -17 -4 -6 4 -8 2 -4 -4 3 -5 1 -12 -6 -14
-7 -3 -5 -7 6 -11 11 -5 15 -3 10 5 -5 7 -2 9 7 6 10 -4 15 1 15 13 0 22 -2
23 -11 9z"/>
<path d="M1928 1688 c5 -5 16 -8 23 -6 8 3 3 7 -10 11 -17 4 -21 3 -13 -5z"/>
<path d="M1155 1666 c-17 -12 -16 -14 15 -18 28 -4 31 -3 16 8 -16 12 -16 13
1 17 13 3 14 5 2 6 -8 0 -24 -5 -34 -13z"/>
<path d="M1118 1638 c5 -5 16 -8 23 -6 8 3 3 7 -10 11 -17 4 -21 3 -13 -5z"/>
<path d="M1168 1623 c7 -3 16 -2 19 1 4 3 -2 6 -13 5 -11 0 -14 -3 -6 -6z"/>
<path d="M1283 1593 c9 -3 15 -9 11 -14 -3 -5 -10 -6 -16 -3 -7 4 -8 2 -4 -4
4 -7 14 -12 22 -12 8 0 12 5 9 10 -8 13 28 13 41 0 6 -6 10 -4 10 8 0 13 -10
17 -46 18 -25 0 -37 -1 -27 -3z"/>
<path d="M1942 1570 c0 -19 2 -27 5 -17 2 9 2 25 0 35 -3 9 -5 1 -5 -18z"/>
<path d="M1970 1589 c0 -5 5 -7 10 -4 6 3 10 8 10 11 0 2 -4 4 -10 4 -5 0 -10
-5 -10 -11z"/>
<path d="M1945 1520 c-3 -5 -1 -10 4 -10 6 0 11 5 11 10 0 6 -2 10 -4 10 -3 0
-8 -4 -11 -10z"/>
<path d="M1410 1516 c0 -2 7 -7 16 -10 8 -3 12 -2 9 4 -6 10 -25 14 -25 6z"/>
<path d="M1450 1509 c0 -11 60 -22 96 -16 22 3 19 4 -14 6 -24 0 -41 5 -38 10
3 5 -6 9 -19 9 -14 0 -25 -4 -25 -9z"/>
<path d="M1570 1516 c0 -2 7 -7 16 -10 8 -3 12 -2 9 4 -6 10 -25 14 -25 6z"/>
<path d="M1940 1438 c0 -7 5 -20 10 -28 8 -12 10 -9 10 13 0 15 -4 27 -10 27
-5 0 -10 -6 -10 -12z"/>
<path d="M1679 1437 c-6 -19 -5 -36 2 -31 5 3 7 10 4 15 -4 5 1 9 10 9 9 0 13
-4 10 -10 -3 -5 1 -10 9 -10 9 0 15 -5 14 -12 -2 -6 6 -13 17 -15 15 -3 17 -2
6 5 -11 8 -11 10 0 15 12 5 12 6 0 6 -10 1 -10 5 -3 14 8 9 1 13 -29 14 -21 2
-39 2 -40 0z"/>
<path d="M1940 1379 c0 -5 -4 -8 -9 -5 -5 3 -11 -1 -15 -9 -4 -10 1 -15 14
-15 13 0 20 7 20 20 0 11 -2 20 -5 20 -3 0 -5 -5 -5 -11z"/>
<path d="M1972 1363 c2 -9 8 -18 15 -20 7 -3 9 3 6 16 -6 25 -26 28 -21 4z"/>
<path d="M1908 1333 c7 -3 16 -2 19 1 4 3 -2 6 -13 5 -11 0 -14 -3 -6 -6z"/>
<path d="M1945 1330 c4 -6 11 -8 16 -5 14 9 11 15 -7 15 -8 0 -12 -5 -9 -10z"/>
<path d="M1930 1306 c14 -8 27 -12 29 -10 6 6 -1 11 -29 18 l-25 7 25 -15z"/>
<path d="M1981 1304 c0 -11 3 -14 6 -6 3 7 2 16 -1 19 -3 4 -6 -2 -5 -13z"/>
</g>
</svg>
