<?xml version="1.0" standalone="no"?>
<!DOCTYPE svg PUBLIC "-//W3C//DTD SVG 20010904//EN"
 "http://www.w3.org/TR/2001/REC-SVG-20010904/DTD/svg10.dtd">
<svg version="1.0" xmlns="http://www.w3.org/2000/svg"
 width="735.000000pt" height="386.000000pt" viewBox="0 0 735.000000 386.000000"
 preserveAspectRatio="xMidYMid meet">

<g transform="translate(0.000000,386.000000) scale(0.100000,-0.100000)"
fill="#000000" stroke="none">
<path d="M2718 2700 c-67 -12 -137 -36 -253 -88 -168 -75 -287 -122 -348 -138
-99 -25 -207 -35 -287 -25 -41 5 -76 8 -77 7 -6 -6 151 -368 222 -511 204
-413 430 -696 612 -765 198 -76 513 40 803 295 136 119 247 182 303 171 52
-11 148 -71 260 -165 261 -220 478 -324 672 -324 129 1 214 43 341 171 184
184 360 480 544 911 50 118 89 215 88 217 -2 1 -37 -2 -78 -7 -48 -6 -103 -5
-154 1 -135 17 -178 32 -516 177 -63 28 -140 56 -170 64 -125 30 -301 8 -707
-91 -137 -33 -271 -60 -298 -60 -28 0 -160 27 -295 60 -350 85 -560 117 -662
100z m127 -515 c86 -23 167 -70 238 -139 58 -57 157 -191 157 -214 0 -12 -94
-47 -180 -67 -36 -8 -101 -15 -145 -15 -151 0 -253 43 -367 155 -59 57 -148
181 -148 205 0 19 130 66 225 80 84 13 158 11 220 -5z m1965 -14 c83 -24 140
-48 140 -59 0 -22 -81 -139 -135 -194 -119 -122 -221 -168 -370 -168 -140 0
-343 55 -330 89 18 49 79 133 143 197 78 78 176 136 262 154 63 13 213 3 290
-19z"/>
</g>
</svg>
