<?xml version="1.0" standalone="no"?>
<!DOCTYPE svg PUBLIC "-//W3C//DTD SVG 20010904//EN"
 "http://www.w3.org/TR/2001/REC-SVG-20010904/DTD/svg10.dtd">
<svg version="1.0" xmlns="http://www.w3.org/2000/svg"
 width="512.000000pt" height="512.000000pt" viewBox="0 0 512.000000 512.000000"
 preserveAspectRatio="xMidYMid meet">

<g transform="translate(0.000000,512.000000) scale(0.100000,-0.100000)"
fill="#000000" stroke="none">
<path d="M2320 5110 c-548 -59 -998 -310 -1308 -729 -161 -217 -305 -516 -380
-792 -21 -78 -30 -98 -42 -93 -104 44 -202 49 -293 14 -70 -26 -143 -95 -177
-165 -36 -73 -40 -188 -9 -270 20 -54 41 -80 214 -255 l192 -195 7 -70 c23
-233 120 -537 298 -933 223 -498 271 -630 272 -749 1 -57 -3 -77 -20 -100 -34
-48 -98 -72 -219 -84 -123 -12 -131 -15 -158 -51 -30 -40 -15 -77 66 -164 219
-234 543 -389 947 -451 142 -22 495 -24 650 -5 472 59 893 226 1256 498 518
388 856 974 958 1664 9 58 21 184 27 280 l11 175 188 190 c165 168 190 197
209 248 65 177 -17 372 -184 437 -82 32 -189 32 -263 0 -29 -12 -54 -21 -56
-19 -2 2 -20 60 -40 129 -81 269 -209 538 -349 729 -303 416 -714 667 -1222
747 -119 18 -456 26 -575 14z m589 -191 c218 -37 454 -127 626 -240 375 -244
649 -661 790 -1200 l32 -126 -173 -179 c-148 -154 -173 -183 -173 -211 -1 -17
2 -39 5 -48 10 -24 62 -47 93 -40 18 4 103 82 251 231 124 124 237 232 252
240 15 8 51 14 81 14 116 0 193 -106 157 -215 -9 -28 -85 -110 -305 -332 -198
-198 -295 -303 -298 -320 -6 -32 8 -72 31 -89 29 -23 87 -17 122 12 l31 27 -5
-24 c-3 -13 -8 -60 -11 -104 -3 -44 -17 -138 -30 -210 -123 -664 -482 -1206
-1034 -1559 -98 -63 -353 -187 -476 -231 -554 -200 -1208 -188 -1646 30 -113
56 -269 159 -269 178 0 3 17 8 37 12 98 18 205 101 244 187 19 44 23 69 23
148 -1 162 -58 329 -269 779 -105 226 -223 550 -269 744 -7 28 -6 28 16 13 56
-39 128 0 128 71 0 35 -14 51 -294 332 -162 163 -300 309 -305 324 -51 133 65
263 202 226 36 -9 78 -47 283 -250 215 -214 244 -239 273 -239 60 0 110 74 81
120 -5 8 -88 94 -185 191 l-176 176 26 103 c129 507 397 935 739 1177 232 165
534 273 843 303 139 14 411 4 552 -21z"/>
<path d="M1614 3652 c-271 -96 -336 -541 -111 -749 65 -60 102 -76 187 -81 82
-5 123 7 193 55 117 81 186 279 157 450 -40 242 -238 393 -426 325z"/>
<path d="M3340 3661 c-170 -56 -282 -245 -266 -452 13 -177 103 -317 241 -375
60 -25 178 -16 237 19 53 31 119 100 146 154 50 98 68 245 42 357 -26 118
-115 237 -207 278 -51 22 -153 33 -193 19z"/>
<path d="M2243 2874 c-24 -24 -25 -31 -20 -90 9 -122 86 -227 205 -282 79 -36
185 -36 265 1 118 54 195 159 204 281 5 59 4 66 -20 90 -18 18 -37 26 -60 26
-50 0 -75 -26 -87 -87 -21 -115 -68 -158 -170 -158 -102 0 -149 43 -170 158
-12 61 -37 87 -87 87 -23 0 -42 -8 -60 -26z"/>
</g>
</svg>
