<?xml version="1.0" standalone="no"?>
<!DOCTYPE svg PUBLIC "-//W3C//DTD SVG 20010904//EN"
 "http://www.w3.org/TR/2001/REC-SVG-20010904/DTD/svg10.dtd">
<svg version="1.0" xmlns="http://www.w3.org/2000/svg"
 width="626.000000pt" height="626.000000pt" viewBox="0 0 626.000000 626.000000"
 preserveAspectRatio="xMidYMid meet">

<g transform="translate(0.000000,626.000000) scale(0.100000,-0.100000)"
fill="#000000" stroke="none">
<path d="M1991 5314 c-171 -46 -290 -177 -340 -375 -69 -273 -10 -557 151
-723 l57 -59 -34 -41 c-46 -56 -101 -169 -116 -238 -10 -46 -10 -69 0 -113 14
-60 56 -115 89 -115 28 0 34 -13 21 -47 -48 -125 -64 -411 -30 -541 45 -173
147 -257 245 -203 l40 22 38 -45 c21 -24 67 -68 103 -96 l65 -52 -77 -47
c-134 -80 -234 -160 -353 -280 -124 -125 -195 -220 -258 -346 -68 -135 -82
-197 -82 -354 0 -121 3 -141 24 -186 37 -81 144 -176 181 -161 14 5 16 15 10
58 l-7 52 61 -57 c97 -89 135 -90 125 -3 -6 52 -6 53 21 60 15 4 53 33 85 64
69 70 115 160 165 327 25 84 34 106 31 73 -29 -259 -32 -452 -10 -639 l7 -57
-49 -16 c-69 -23 -140 -70 -166 -110 -16 -25 -35 -38 -66 -47 -60 -17 -124
-81 -151 -153 -11 -31 -21 -63 -21 -71 0 -19 26 -19 80 0 55 19 57 19 63 -6 6
-23 5 -23 102 4 48 14 50 13 58 -6 6 -16 12 -18 40 -12 39 10 40 10 257 0 192
-8 440 6 525 30 50 14 91 47 114 92 12 24 35 219 27 238 -3 9 25 12 110 12
l114 -1 0 -35 c3 -170 35 -257 110 -296 60 -31 420 -49 700 -36 47 2 99 1 116
-3 26 -7 32 -5 36 12 5 18 10 19 43 12 20 -5 50 -14 66 -20 34 -14 64 -6 55
15 -7 20 13 19 73 -4 59 -22 76 -15 66 28 -6 28 -4 31 17 31 157 2 370 49 478
106 129 67 233 203 247 323 8 68 -1 96 -41 120 -39 24 -71 26 -106 6 -23 -13
-27 -11 -62 22 -69 67 -170 54 -230 -31 -32 -46 -32 -46 -89 -46 -32 0 -61 5
-65 11 -3 6 8 25 24 42 58 60 72 107 72 252 0 155 -12 213 -75 344 -114 236
-340 474 -608 636 l-87 53 64 51 c35 28 81 72 103 97 l38 45 40 -22 c106 -58
208 36 251 230 24 107 15 321 -19 451 -14 52 -23 98 -20 103 2 4 13 7 25 7 32
0 75 55 87 112 21 97 -20 226 -110 345 l-39 53 39 35 c135 122 213 353 196
579 -16 216 -88 371 -214 466 -81 61 -247 111 -265 81 -4 -6 3 -52 15 -101 28
-116 24 -260 -8 -332 -24 -53 -99 -138 -149 -169 l-34 -20 -57 43 c-100 76
-209 134 -344 182 l-76 28 4 66 c5 63 3 69 -22 92 -23 22 -36 25 -98 25 -70 0
-88 -6 -199 -63 -5 -2 -8 18 -8 45 0 210 -248 141 -447 -124 -29 -40 -59 -73
-66 -73 -27 0 -256 -122 -320 -171 l-68 -51 -37 25 c-60 40 -110 97 -139 156
-39 79 -45 222 -14 341 12 46 20 89 17 97 -7 17 -46 16 -115 -3z m49 -47 c0
-1 -7 -34 -15 -72 -48 -225 13 -401 180 -521 l29 -21 -46 -54 c-59 -70 -112
-154 -153 -243 -24 -52 -47 -82 -84 -114 l-51 -43 -54 55 c-66 67 -107 138
-138 236 -19 64 -23 96 -23 220 0 158 12 224 62 327 27 59 85 129 136 165 39
28 157 77 157 65z m2288 -38 c72 -35 149 -115 186 -192 48 -99 61 -169 60
-332 0 -137 -3 -157 -28 -230 -32 -94 -81 -173 -143 -232 l-45 -42 -50 42
c-37 31 -59 61 -83 113 -40 88 -94 173 -153 243 l-46 54 34 26 c128 95 190
216 190 372 0 60 -12 146 -26 192 -8 27 34 22 104 -14z m-1213 -119 c0 -36 -4
-81 -9 -102 -7 -31 -5 -38 12 -47 16 -8 26 -4 56 24 78 72 230 119 272 84 30
-25 -15 -146 -68 -184 l-22 -15 27 0 c16 0 41 7 57 15 27 14 35 13 114 -14 97
-34 205 -86 285 -139 72 -48 196 -171 244 -245 44 -65 103 -182 113 -220 3
-15 21 -36 39 -47 18 -11 66 -55 107 -98 99 -104 138 -181 145 -290 5 -76 5
-81 -20 -106 -27 -27 -46 -27 -79 2 -15 12 -20 13 -34 1 -19 -15 -16 -35 19
-136 41 -118 51 -180 51 -328 1 -174 -22 -266 -84 -327 -42 -42 -66 -47 -99
-19 -17 15 -20 24 -13 42 8 22 8 34 4 82 -3 31 -17 18 -49 -45 -61 -121 -198
-247 -362 -332 -51 -26 -95 -46 -97 -43 -3 3 5 25 17 49 27 51 26 48 39 208
18 226 -32 691 -88 810 -23 50 -95 118 -150 143 -46 21 -59 22 -412 22 -350 0
-367 -1 -411 -21 -92 -43 -151 -117 -177 -224 -6 -25 -20 -103 -31 -175 -54
-346 -49 -636 13 -777 9 -21 14 -38 11 -38 -3 0 -38 16 -78 36 -171 86 -313
213 -377 337 -19 37 -38 67 -42 67 -15 0 -20 -53 -10 -87 10 -32 9 -38 -11
-54 -32 -27 -61 -23 -97 12 -38 38 -55 78 -75 174 -30 146 -14 322 47 505 32
99 32 102 14 116 -16 12 -22 12 -35 0 -32 -26 -51 -27 -78 0 -24 24 -25 30
-21 102 6 92 34 165 94 238 50 61 137 144 169 161 15 8 29 32 40 65 34 104
134 257 222 339 100 94 274 198 381 230 36 11 51 23 85 73 93 138 240 250 317
244 l35 -3 0 -65z m377 -1322 c59 -17 133 -88 152 -145 9 -26 13 -50 9 -54
-11 -11 -437 -31 -571 -27 l-114 3 -23 54 -23 55 -26 -51 c-14 -29 -29 -54
-33 -56 -8 -5 -255 13 -262 19 -1 1 4 25 13 51 20 59 84 126 141 147 53 19
675 23 737 4z m-463 -768 c38 -10 91 -56 91 -77 0 -7 5 -13 10 -13 6 0 10 6
10 13 0 19 49 61 88 77 21 8 59 11 106 8 79 -5 130 -28 192 -85 16 -15 22 -22
12 -14 -22 17 -23 8 -2 -24 9 -15 16 -45 16 -75 -1 -96 -80 -171 -232 -220
-136 -44 -347 -28 -473 36 -131 67 -166 150 -118 279 29 76 190 127 300 95z
m589 -185 c-3 -3 -9 2 -12 12 -6 14 -5 15 5 6 7 -7 10 -15 7 -18z m40 -70 c-3
-3 -9 2 -12 12 -6 14 -5 15 5 6 7 -7 10 -15 7 -18z m-1049 -101 c4 3 8 -1 8
-9 0 -11 -4 -12 -14 -4 -7 6 -13 17 -12 23 0 7 2 6 6 -2 2 -6 8 -10 12 -8z
m1027 -42 c-17 -16 -18 -16 -5 5 7 12 15 20 18 17 3 -2 -3 -12 -13 -22z
m-1213 -21 c42 -22 119 -54 171 -72 52 -18 93 -36 91 -39 -2 -4 8 -5 23 -2 15
2 65 -4 111 -12 180 -34 479 -31 667 8 42 9 67 10 79 3 11 -6 16 -6 12 0 -4 5
37 25 91 43 53 18 128 48 165 67 37 18 73 31 79 27 7 -4 8 -3 4 4 -9 15 6 15
38 1 14 -7 23 -16 20 -20 -3 -5 1 -6 9 -3 35 13 324 -208 432 -330 135 -153
238 -332 269 -464 14 -59 13 -63 -2 -56 -42 18 -84 16 -113 -5 -27 -20 -31
-21 -60 -5 -47 24 -96 11 -141 -37 -48 -51 -55 -80 -34 -140 10 -26 16 -56 14
-66 -4 -15 -14 -8 -55 33 -62 63 -102 145 -148 306 -20 68 -43 143 -52 168
-39 111 -126 297 -179 381 -24 39 -111 116 -120 107 -3 -3 8 -28 25 -55 69
-111 141 -351 177 -585 19 -124 25 -437 11 -569 l-8 -76 -72 -6 c-81 -6 -150
-28 -187 -58 l-25 -20 40 8 c22 4 92 8 155 8 96 0 125 -4 176 -23 67 -26 140
-80 127 -93 -5 -5 -56 -9 -113 -8 -58 0 -122 0 -143 0 -40 -1 -65 -11 -91 -37
-21 -20 -21 -93 0 -122 l15 -22 -135 0 c-158 0 -329 17 -368 37 -48 24 -62 66
-63 182 l0 103 53 20 c69 26 168 94 206 140 36 46 29 59 -16 25 -45 -33 -145
-79 -248 -113 -181 -60 -374 -26 -597 105 -29 17 -53 26 -53 20 0 -6 26 -37
58 -68 43 -42 81 -67 146 -96 l89 -39 -6 -101 c-8 -168 -27 -186 -211 -204
-133 -13 -367 -15 -347 -2 20 13 26 111 9 134 -21 28 -107 47 -158 36 -23 -5
-52 -7 -63 -3 -11 4 -44 6 -73 5 -31 0 -56 4 -60 11 -5 7 -2 9 9 5 10 -4 14
-2 11 7 -7 18 25 43 97 73 57 24 77 27 184 27 66 1 138 -3 159 -7 35 -8 38 -7
27 7 -21 25 -121 57 -198 63 l-72 6 -8 66 c-14 118 -9 456 10 576 36 233 107
471 173 580 19 32 34 59 34 61 0 13 -24 -2 -68 -41 -27 -24 -52 -42 -55 -39
-3 3 -4 -1 -4 -8 1 -7 -33 -81 -75 -165 -42 -84 -92 -205 -113 -270 -20 -65
-51 -161 -67 -213 -36 -116 -75 -186 -131 -236 -36 -33 -42 -36 -45 -20 -2 10
0 21 5 25 4 3 9 15 10 26 2 11 5 36 9 55 4 28 0 43 -24 76 -47 65 -118 90
-166 59 -22 -15 -27 -14 -60 6 -35 20 -67 22 -108 5 -15 -7 -16 -3 -2 56 35
151 158 352 309 503 148 148 385 319 416 299 7 -4 9 -3 5 4 -6 10 7 20 29 21
6 1 45 -17 88 -38z m1044 -47 c-3 -3 -12 -4 -19 -1 -8 3 -5 6 6 6 11 1 17 -2
13 -5z m-554 -21 c-7 -2 -19 -2 -25 0 -7 3 -2 5 12 5 14 0 19 -2 13 -5z m230
-10 c-13 -2 -33 -2 -45 0 -13 2 -3 4 22 4 25 0 35 -2 23 -4z m916 -615 c6 -18
7 -28 2 -23 -10 12 -25 55 -18 55 3 0 10 -15 16 -32z m53 -220 c19 -29 50 -78
68 -109 42 -72 79 -112 135 -145 l45 -26 -6 -54 c-7 -52 -6 -54 18 -54 13 0
40 11 59 25 35 27 67 27 98 2 21 -18 163 -36 281 -36 115 -1 213 16 287 49 52
23 89 20 95 -8 5 -23 -24 -121 -48 -158 -64 -101 -161 -171 -294 -212 -69 -22
-217 -42 -304 -42 -76 0 -87 2 -82 16 3 8 2 13 -3 10 -4 -3 -20 8 -35 25 -15
17 -48 39 -74 50 -26 11 -66 40 -89 64 -40 42 -120 90 -173 105 -24 6 -25 8
-20 81 3 41 5 163 5 272 0 108 0 197 1 197 0 0 16 -24 36 -52z m884 -299 c14
-15 14 -19 3 -23 -20 -8 -149 -23 -149 -19 0 17 27 47 52 57 36 16 71 10 94
-15z"/>
<path d="M2573 4551 c-18 -5 -45 -17 -60 -27 l-28 -18 75 -11 c92 -13 128 -32
177 -90 26 -31 44 -45 58 -43 51 8 -5 136 -75 170 -44 21 -105 29 -147 19z"/>
<path d="M3600 4548 c-55 -16 -91 -47 -117 -105 -42 -91 -4 -115 60 -38 49 58
98 82 181 91 54 6 64 9 55 20 -12 15 -102 45 -128 43 -9 0 -32 -5 -51 -11z"/>
<path d="M2535 4319 c-51 -15 -102 -66 -137 -137 -28 -57 -33 -77 -33 -142 0
-135 65 -220 168 -220 96 0 178 77 214 199 37 130 -18 273 -118 301 -39 12
-53 11 -94 -1z m108 -60 c50 -23 65 -121 25 -159 -29 -27 -44 -25 -79 9 -39
39 -41 100 -4 136 28 29 26 28 58 14z m-155 -291 c16 -16 15 -53 -2 -67 -12
-10 -19 -8 -35 8 -22 22 -24 30 -15 55 7 19 35 21 52 4z"/>
<path d="M3646 4320 c-99 -30 -149 -171 -108 -307 37 -122 114 -193 208 -193
183 0 238 287 84 441 -61 61 -117 79 -184 59z m49 -75 c37 -36 35 -97 -4 -136
-36 -35 -45 -36 -76 -4 -37 36 -35 97 4 136 36 35 45 36 76 4z m153 -291 c2
-11 -6 -31 -16 -44 -17 -21 -22 -22 -36 -11 -19 16 -20 34 -5 62 14 26 53 22
57 -7z"/>
</g>
</svg>
